<svg version="1.1" xmlns="http://www.w3.org/2000/svg" viewBox="0 0 810.8094167440584 1507.9288084323337" width="810.8094167440584" height="1507.9288084323337">
  <!-- svg-source:excalidraw -->
  
  <defs>
    <style class="style-fonts">
      @font-face {
        font-family: "Virgil";
        src: url("https://excalidraw.com/Virgil.woff2");
      }
      @font-face {
        font-family: "Cascadia";
        src: url("https://excalidraw.com/Cascadia.woff2");
      }
    </style>
  </defs>
  <rect x="0" y="0" width="810.8094167440584" height="1507.9288084323337" fill="#ffffff"></rect><g transform="translate(76.3635198419745 108.89670632102269) rotate(0 47.5 24.5)"><text x="0" y="17.5" font-family="Virgil, Segoe UI Emoji" font-size="20px" fill="#000000" text-anchor="start" style="white-space: pre;" direction="ltr">4 . . . 95</text><text x="0" y="42" font-family="Virgil, Segoe UI Emoji" font-size="20px" fill="#000000" text-anchor="start" style="white-space: pre;" direction="ltr">5 . . . 95</text></g><g transform="translate(42.84079950506043 222.98761818625707) rotate(0 7.5 12.5)"><text x="0" y="17" font-family="Virgil, Segoe UI Emoji" font-size="20px" fill="#000000" text-anchor="start" style="white-space: pre;" direction="ltr">4</text></g><g stroke-linecap="round"><g transform="translate(91.02256220037293 236.20054099781112) rotate(0 65.96292110458018 -0.7129228115540513)"><path d="M-0.6 -0.25 C21.32 -0.39, 110.39 -1.09, 132.53 -1.01 M1.28 -1.43 C23.03 -1.44, 110.23 -0.52, 131.95 0" stroke="#000000" stroke-width="1" fill="none"></path></g></g><mask></mask><g transform="translate(248.29532831365418 222.98761818625707) rotate(0 13.5 12.5)"><text x="0" y="17" font-family="Virgil, Segoe UI Emoji" font-size="20px" fill="#000000" text-anchor="start" style="white-space: pre;" direction="ltr">95</text></g><g transform="translate(87.38627069646668 301.71488259055394) rotate(0 7 12.5)"><text x="0" y="17" font-family="Virgil, Segoe UI Emoji" font-size="20px" fill="#000000" text-anchor="start" style="white-space: pre;" direction="ltr">5</text></g><g stroke-linecap="round"><g transform="translate(124.54534357244324 314.1933891221203) rotate(0 49.37147646825292 0.021493468433618546)"><path d="M1.13 0.87 C17.56 0.56, 82.48 -0.5, 98.48 -0.83 M0.26 0.28 C16.57 0.62, 81.11 0.38, 97.63 0.28" stroke="#000000" stroke-width="1" fill="none"></path></g></g><mask></mask><g transform="translate(248.29532831365418 301.71488259055394) rotate(0 13.5 12.5)"><text x="0" y="17" font-family="Virgil, Segoe UI Emoji" font-size="20px" fill="#000000" text-anchor="start" style="white-space: pre;" direction="ltr">95</text></g><g transform="translate(74.65909784490418 438.4876487038352) rotate(0 42 24.50000000000003)"><text x="0" y="17.5" font-family="Virgil, Segoe UI Emoji" font-size="20px" fill="#000000" text-anchor="start" style="white-space: pre;" direction="ltr">6 . . . 6</text><text x="0" y="42" font-family="Virgil, Segoe UI Emoji" font-size="20px" fill="#000000" text-anchor="start" style="white-space: pre;" direction="ltr">4 . . . 6</text></g><g transform="translate(44.04543512517762 598.0330893776634) rotate(0 7.5 12.5)"><text x="0" y="17" font-family="Virgil, Segoe UI Emoji" font-size="20px" fill="#000000" text-anchor="start" style="white-space: pre;" direction="ltr">4</text></g><g stroke-linecap="round"><g transform="translate(92.22719782049012 611.2460121892175) rotate(0 65.5704017020762 0.06776853869206434)"><path d="M-0.96 0.69 C20.89 0.41, 109.83 -0.26, 132.11 -0.56 M0.73 0.01 C22.36 0.4, 109.37 0.75, 131.31 0.69" stroke="#000000" stroke-width="1" fill="none"></path></g></g><mask></mask><g transform="translate(249.49996393377137 597.1239707253196) rotate(0 7.5 12.5)"><text x="0" y="17" font-family="Virgil, Segoe UI Emoji" font-size="20px" fill="#000000" text-anchor="start" style="white-space: pre;" direction="ltr">6</text></g><g transform="translate(249.49996393377137 533.1240012428977) rotate(0 7.5 12.5)"><text x="0" y="17" font-family="Virgil, Segoe UI Emoji" font-size="20px" fill="#000000" text-anchor="start" style="white-space: pre;" direction="ltr">6</text></g><g transform="translate(398.181757146662 438.4876487038352) rotate(0 83.5 122.50000000000003)"><text x="0" y="17.5" font-family="Virgil, Segoe UI Emoji" font-size="20px" fill="#000000" text-anchor="start" style="white-space: pre;" direction="ltr">Lower:</text><text x="0" y="42" font-family="Virgil, Segoe UI Emoji" font-size="20px" fill="#000000" text-anchor="start" style="white-space: pre;" direction="ltr">    6 - 4 = 2</text><text x="0" y="66.5" font-family="Virgil, Segoe UI Emoji" font-size="20px" fill="#000000" text-anchor="start" style="white-space: pre;" direction="ltr"></text><text x="0" y="91" font-family="Virgil, Segoe UI Emoji" font-size="20px" fill="#000000" text-anchor="start" style="white-space: pre;" direction="ltr">Upper:</text><text x="0" y="115.5" font-family="Virgil, Segoe UI Emoji" font-size="20px" fill="#000000" text-anchor="start" style="white-space: pre;" direction="ltr">    6 - 6 = 0</text><text x="0" y="140" font-family="Virgil, Segoe UI Emoji" font-size="20px" fill="#000000" text-anchor="start" style="white-space: pre;" direction="ltr"></text><text x="0" y="164.5" font-family="Virgil, Segoe UI Emoji" font-size="20px" fill="#000000" text-anchor="start" style="white-space: pre;" direction="ltr">Final:</text><text x="0" y="189" font-family="Virgil, Segoe UI Emoji" font-size="20px" fill="#000000" text-anchor="start" style="white-space: pre;" direction="ltr">    2 - (-0) = 2</text><text x="0" y="213.5" font-family="Virgil, Segoe UI Emoji" font-size="20px" fill="#000000" text-anchor="start" style="white-space: pre;" direction="ltr"></text><text x="0" y="238" font-family="Virgil, Segoe UI Emoji" font-size="20px" fill="#000000" text-anchor="start" style="white-space: pre;" direction="ltr"></text></g><g transform="translate(398.181757146662 108.89670632102269) rotate(0 83 122.5)"><text x="0" y="17.5" font-family="Virgil, Segoe UI Emoji" font-size="20px" fill="#000000" text-anchor="start" style="white-space: pre;" direction="ltr">Lower:</text><text x="0" y="42" font-family="Virgil, Segoe UI Emoji" font-size="20px" fill="#000000" text-anchor="start" style="white-space: pre;" direction="ltr">    4 - 5 = -1</text><text x="0" y="66.5" font-family="Virgil, Segoe UI Emoji" font-size="20px" fill="#000000" text-anchor="start" style="white-space: pre;" direction="ltr"></text><text x="0" y="91" font-family="Virgil, Segoe UI Emoji" font-size="20px" fill="#000000" text-anchor="start" style="white-space: pre;" direction="ltr">Upper:</text><text x="0" y="115.5" font-family="Virgil, Segoe UI Emoji" font-size="20px" fill="#000000" text-anchor="start" style="white-space: pre;" direction="ltr">    95 - 95 = 0</text><text x="0" y="140" font-family="Virgil, Segoe UI Emoji" font-size="20px" fill="#000000" text-anchor="start" style="white-space: pre;" direction="ltr"></text><text x="0" y="164.5" font-family="Virgil, Segoe UI Emoji" font-size="20px" fill="#000000" text-anchor="start" style="white-space: pre;" direction="ltr">Final:</text><text x="0" y="189" font-family="Virgil, Segoe UI Emoji" font-size="20px" fill="#000000" text-anchor="start" style="white-space: pre;" direction="ltr">    -1 - (-0) = -1</text><text x="0" y="213.5" font-family="Virgil, Segoe UI Emoji" font-size="20px" fill="#000000" text-anchor="start" style="white-space: pre;" direction="ltr"></text><text x="0" y="238" font-family="Virgil, Segoe UI Emoji" font-size="20px" fill="#000000" text-anchor="start" style="white-space: pre;" direction="ltr"></text></g><g transform="translate(50.49585515802562 39.76445839621803) rotate(0 36 12.5)"><text x="0" y="17" font-family="Virgil, Segoe UI Emoji" font-size="20px" fill="#000000" text-anchor="start" style="white-space: pre;" direction="ltr">Part A</text></g><g stroke-linecap="round" transform="translate(10 9.999999999999986) rotate(0 299.9999861283736 329.7520620172674)"><path d="M32 0 M32 0 C205.95 0, 379.14 -0.64, 568 0 M32 0 C199.72 -1.58, 367.24 -1.48, 568 0 M568 0 C590.43 -1.24, 599.96 11.84, 600 32 M568 0 C590.49 0.76, 599.16 8.64, 600 32 M600 32 C598.04 186.34, 598.09 339.77, 600 627.5 M600 32 C598.32 209.03, 598.1 387, 600 627.5 M600 627.5 C600.64 647.79, 587.62 659.28, 568 659.5 M600 627.5 C599.57 646.65, 591.23 658.12, 568 659.5 M568 659.5 C404.58 661.13, 241.65 660.95, 32 659.5 M568 659.5 C436.82 657.87, 304.71 658.02, 32 659.5 M32 659.5 C9.12 659.37, -2 647.88, 0 627.5 M32 659.5 C10.55 660.58, -2.05 650.18, 0 627.5 M0 627.5 C-0.97 473.15, -1.16 319.61, 0 32 M0 627.5 C-0.57 468.25, -1.06 309.04, 0 32 M0 32 C-0.21 9.19, 11.56 -1.23, 32 0 M0 32 C-1.69 9.93, 9.52 1.75, 32 0" stroke="#000000" stroke-width="1" fill="none"></path></g><g transform="translate(65.96994600444509 872.6298461730867) rotate(0 36.5 12.5)"><text x="0" y="17" font-family="Virgil, Segoe UI Emoji" font-size="20px" fill="#000000" text-anchor="start" style="white-space: pre;" direction="ltr">Part B</text></g><g transform="translate(36.458215126842106 961.2583094618926) rotate(0 83 236.5)"><text x="0" y="18.65" font-family="Cascadia, Segoe UI Emoji" font-size="20px" fill="#000000" text-anchor="start" style="white-space: pre;" direction="ltr">.234.....  2-4</text><text x="0" y="42.3" font-family="Cascadia, Segoe UI Emoji" font-size="20px" fill="#000000" text-anchor="start" style="white-space: pre;" direction="ltr">.....678.  6-8</text><text x="0" y="65.94999999999999" font-family="Cascadia, Segoe UI Emoji" font-size="20px" fill="#000000" text-anchor="start" style="white-space: pre;" direction="ltr"></text><text x="0" y="89.6" font-family="Cascadia, Segoe UI Emoji" font-size="20px" fill="#000000" text-anchor="start" style="white-space: pre;" direction="ltr">.23......  2-3</text><text x="0" y="113.25" font-family="Cascadia, Segoe UI Emoji" font-size="20px" fill="#000000" text-anchor="start" style="white-space: pre;" direction="ltr">...45....  4-5</text><text x="0" y="136.89999999999998" font-family="Cascadia, Segoe UI Emoji" font-size="20px" fill="#000000" text-anchor="start" style="white-space: pre;" direction="ltr"></text><text x="0" y="160.54999999999998" font-family="Cascadia, Segoe UI Emoji" font-size="20px" fill="#000000" text-anchor="start" style="white-space: pre;" direction="ltr">....567..  5-7</text><text x="0" y="184.2" font-family="Cascadia, Segoe UI Emoji" font-size="20px" fill="#000000" text-anchor="start" style="white-space: pre;" direction="ltr">......789  7-9</text><text x="0" y="207.85" font-family="Cascadia, Segoe UI Emoji" font-size="20px" fill="#000000" text-anchor="start" style="white-space: pre;" direction="ltr"></text><text x="0" y="231.5" font-family="Cascadia, Segoe UI Emoji" font-size="20px" fill="#000000" text-anchor="start" style="white-space: pre;" direction="ltr">.2345678.  2-8</text><text x="0" y="255.14999999999998" font-family="Cascadia, Segoe UI Emoji" font-size="20px" fill="#000000" text-anchor="start" style="white-space: pre;" direction="ltr">..34567..  3-7</text><text x="0" y="278.79999999999995" font-family="Cascadia, Segoe UI Emoji" font-size="20px" fill="#000000" text-anchor="start" style="white-space: pre;" direction="ltr"></text><text x="0" y="302.45" font-family="Cascadia, Segoe UI Emoji" font-size="20px" fill="#000000" text-anchor="start" style="white-space: pre;" direction="ltr">.....6...  6-6</text><text x="0" y="326.09999999999997" font-family="Cascadia, Segoe UI Emoji" font-size="20px" fill="#000000" text-anchor="start" style="white-space: pre;" direction="ltr">...456...  4-6</text><text x="0" y="349.75" font-family="Cascadia, Segoe UI Emoji" font-size="20px" fill="#000000" text-anchor="start" style="white-space: pre;" direction="ltr"></text><text x="0" y="373.4" font-family="Cascadia, Segoe UI Emoji" font-size="20px" fill="#000000" text-anchor="start" style="white-space: pre;" direction="ltr">.23456...  2-6</text><text x="0" y="397.04999999999995" font-family="Cascadia, Segoe UI Emoji" font-size="20px" fill="#000000" text-anchor="start" style="white-space: pre;" direction="ltr">...45678.  4-8</text><text x="0" y="420.7" font-family="Cascadia, Segoe UI Emoji" font-size="20px" fill="#000000" text-anchor="start" style="white-space: pre;" direction="ltr"></text><text x="0" y="444.34999999999997" font-family="Cascadia, Segoe UI Emoji" font-size="20px" fill="#000000" text-anchor="start" style="white-space: pre;" direction="ltr">.....678.  6-8</text><text x="0" y="468" font-family="Cascadia, Segoe UI Emoji" font-size="20px" fill="#000000" text-anchor="start" style="white-space: pre;" direction="ltr">.234.....  2-4</text></g><g transform="translate(313.49750855944603 1027.158663755574) rotate(0 229 23.5)"><text x="0" y="19.5" font-family="Cascadia, Segoe UI Emoji" font-size="20px" fill="#000000" text-anchor="start" style="white-space: pre;" direction="ltr">se upperInterval[0] &gt;= lowerInterval[1]</text><text x="0" y="43" font-family="Cascadia, Segoe UI Emoji" font-size="20px" fill="#000000" text-anchor="start" style="white-space: pre;" direction="ltr">e lowerInterval[0] &lt;= upperInterval[1]</text></g><g stroke-linecap="round" transform="translate(10 822.1461841294945) rotate(0 395.4047083720292 337.8913121514196)"><path d="M32 0 M32 0 C200.78 -0.65, 371.09 -0.71, 758.81 0 M32 0 C271.22 -2.53, 510.37 -2.78, 758.81 0 M758.81 0 C780.6 -0.11, 790.54 10.91, 790.81 32 M758.81 0 C781.92 -0.53, 791.94 12.72, 790.81 32 M790.81 32 C792.15 167.84, 792.05 303.36, 790.81 643.78 M790.81 32 C789.27 192.86, 789.89 354.11, 790.81 643.78 M790.81 643.78 C790.77 664.86, 779.98 674.56, 758.81 675.78 M790.81 643.78 C792.03 667.33, 782.35 676.26, 758.81 675.78 M758.81 675.78 C551.32 677.8, 345.93 677.99, 32 675.78 M758.81 675.78 C583.51 675.91, 407.51 676, 32 675.78 M32 675.78 C11.75 676.18, -1.25 665.23, 0 643.78 M32 675.78 C9.03 674.18, -1.63 663.68, 0 643.78 M0 643.78 C-2.38 475.94, -1.94 307.38, 0 32 M0 643.78 C-2.08 406.49, -2.1 169.93, 0 32 M0 32 C-1.14 12.5, 8.94 -1.36, 32 0 M0 32 C-1.37 12.04, 11.59 -1.78, 32 0" stroke="#000000" stroke-width="1" fill="none"></path></g></svg>