<svg version="1.1" xmlns="http://www.w3.org/2000/svg" viewBox="0 0 2692.271731910653 1732.439558041124" width="2692.271731910653" height="1732.439558041124">
  <!-- svg-source:excalidraw -->
  
  <defs>
    <style class="style-fonts">
      @font-face {
        font-family: "Virgil";
        src: url("https://excalidraw.com/Virgil.woff2");
      }
      @font-face {
        font-family: "Cascadia";
        src: url("https://excalidraw.com/Cascadia.woff2");
      }
    </style>
  </defs>
  <rect x="0" y="0" width="2692.271731910653" height="1732.439558041124" fill="#ffffff"></rect><g transform="translate(10 120.3669686146784) rotate(0 62.5 49)"><text x="0" y="17.5" font-family="Virgil, Segoe UI Emoji" font-size="20px" fill="#000000" text-anchor="start" style="white-space: pre;" direction="ltr">    [D]</text><text x="0" y="42" font-family="Virgil, Segoe UI Emoji" font-size="20px" fill="#000000" text-anchor="start" style="white-space: pre;" direction="ltr">[N] [C]</text><text x="0" y="66.5" font-family="Virgil, Segoe UI Emoji" font-size="20px" fill="#000000" text-anchor="start" style="white-space: pre;" direction="ltr">[Z] [M] [P]</text><text x="0" y="91" font-family="Virgil, Segoe UI Emoji" font-size="20px" fill="#000000" text-anchor="start" style="white-space: pre;" direction="ltr"> 1   2   3</text></g><g stroke-linecap="round" transform="translate(562.7376971367712 86.09452537260165) rotate(0 97.80861622947589 18.18182373046875)"><path d="M-1.15 -1.3 C69.8 2.7, 142.04 -0.17, 196.11 -1.54 M-0.92 0.6 C76.81 -0.29, 153.49 -0.43, 196.26 0.14 M193.63 1.16 C195.42 6.73, 197.65 15.79, 195.5 37.71 M196.4 -0.23 C195.83 8.59, 196.07 16.62, 196.07 36.66 M195.23 37.33 C155.61 36.89, 116.02 34.5, 0.94 35.53 M195.69 37.13 C130.2 38.32, 66.88 37.65, -0.21 36.62 M0.49 37.23 C-0.69 29.7, -0.04 22.1, -0.43 1.04 M-0.66 37.3 C-0.57 28.42, -0.73 17.7, -0.68 -0.39" stroke="#000000" stroke-width="1" fill="none"></path></g><g transform="translate(576.37411071099 95.7763491030704) rotate(0 11 12.5)"><text x="0" y="17" font-family="Virgil, Segoe UI Emoji" font-size="20px" fill="#000000" text-anchor="start" style="white-space: pre;" direction="ltr">[]</text></g><g transform="translate(640.0104632500525 95.77637962064853) rotate(0 18.5 12.5)"><text x="0" y="17" font-family="Virgil, Segoe UI Emoji" font-size="20px" fill="#000000" text-anchor="start" style="white-space: pre;" direction="ltr">[D]</text></g><g transform="translate(711.8286395195835 95.77637962064853) rotate(0 11 12.5)"><text x="0" y="17" font-family="Virgil, Segoe UI Emoji" font-size="20px" fill="#000000" text-anchor="start" style="white-space: pre;" direction="ltr">[]</text></g><g stroke-linecap="round"><g transform="translate(625.4649920586462 90.6399965640079) rotate(0 -0.1898523586473857 18.40151685429737)"><path d="M-1.77 0.91 C0.04 6.25, 1.95 16.06, 1.24 37.21 M-0.28 -0.41 C-0.4 12.71, 0.77 24.07, -0.68 35.77" stroke="#000000" stroke-width="1" fill="none"></path></g></g><mask></mask><g stroke-linecap="round"><g transform="translate(690.919581902396 93.3672914858829) rotate(0 -0.09629743641608002 14.603008284699172)"><path d="M1.08 0.6 C-0.66 9.31, -1.81 20.38, -1.01 29.27 M0.43 -0.06 C-0.92 10.79, -0.35 20.83, -0.34 26.75" stroke="#000000" stroke-width="1" fill="none"></path></g></g><mask></mask><g stroke-linecap="round" transform="translate(561.1276889760477 149.84264439016954) rotate(0 97.80861622947589 18.18182373046875)"><path d="M-0.45 0.56 C48.71 2.79, 97.49 -0.2, 196.22 -1.5 M0.19 0.12 C48.49 -0.89, 96.1 -0.88, 195.62 -0.34 M196.16 1.65 C196.46 13.23, 194.82 28.15, 196.31 35.22 M195.91 0.7 C195.45 9.78, 195.43 18.14, 194.8 37.07 M197.49 36.49 C120.45 33.84, 41.33 33.22, -1.66 38.24 M196.48 36.38 C121.11 35.15, 46.1 35.17, -0.83 36.06 M-1.41 37.16 C1.95 23.52, 1.03 13.42, 0.22 -1.22 M-0.25 37.24 C-0.23 21.78, 0.9 7.34, -0.56 -0.45" stroke="#000000" stroke-width="1" fill="none"></path></g><g transform="translate(574.7641025502664 159.5244681206383) rotate(0 17.5 12.5)"><text x="0" y="17" font-family="Virgil, Segoe UI Emoji" font-size="20px" fill="#000000" text-anchor="start" style="white-space: pre;" direction="ltr">[N]</text></g><g transform="translate(638.400455089329 159.52449863821641) rotate(0 17.5 12.5)"><text x="0" y="17" font-family="Virgil, Segoe UI Emoji" font-size="20px" fill="#000000" text-anchor="start" style="white-space: pre;" direction="ltr">[C]</text></g><g transform="translate(710.2186313588602 159.52449863821641) rotate(0 11 12.5)"><text x="0" y="17" font-family="Virgil, Segoe UI Emoji" font-size="20px" fill="#000000" text-anchor="start" style="white-space: pre;" direction="ltr">[]</text></g><g stroke-linecap="round"><g transform="translate(623.8549838979227 154.3881155815758) rotate(0 0.07879695482552052 17.33508604578674)"><path d="M-0.72 -1.16 C0.53 10.14, -1.14 24.98, 0.88 35.83 M-0.37 -0.01 C0.1 10.73, 0.8 22.09, 0.25 35.73" stroke="#000000" stroke-width="1" fill="none"></path></g></g><mask></mask><g stroke-linecap="round"><g transform="translate(689.3095737416727 157.1154105034508) rotate(0 -0.17226990184394708 14.051426677964628)"><path d="M-1.16 0.6 C-1.24 6.58, 1.96 16.18, 0.37 27.52 M-0.01 0.01 C-0.35 9.58, -0.06 17.99, 0.27 28.1" stroke="#000000" stroke-width="1" fill="none"></path></g></g><mask></mask><g stroke-linecap="round" transform="translate(561.4500247806743 217.10132643792156) rotate(0 97.80861622947589 18.18182373046875)"><path d="M0.6 -1.5 C75.56 2.84, 154.13 1.51, 195.86 0.5 M0.01 -0.34 C58.87 -0.02, 116.56 0.3, 196.44 0.43 M196.31 -1.14 C194.43 11.97, 195.75 21.4, 197.02 35.47 M194.8 0.7 C196.39 13.28, 194.69 28.32, 195.68 37.34 M193.95 38.24 C148.66 35.29, 96.59 36.46, 0.04 36.59 M194.78 36.06 C125.39 36.79, 55.3 36.88, 0.4 37.2 M0.22 35.15 C1.66 26.37, 0.17 17.74, 1.75 -0.8 M-0.56 35.92 C-0.06 26.21, -0.08 18.28, 0.79 0.7" stroke="#000000" stroke-width="1" fill="none"></path></g><g transform="translate(575.0864383548931 226.7831501683903) rotate(0 19 12.5)"><text x="0" y="17" font-family="Virgil, Segoe UI Emoji" font-size="20px" fill="#000000" text-anchor="start" style="white-space: pre;" direction="ltr">[Z]</text></g><g transform="translate(638.7227908939556 226.78318068596843) rotate(0 18.5 12.5)"><text x="0" y="17" font-family="Virgil, Segoe UI Emoji" font-size="20px" fill="#000000" text-anchor="start" style="white-space: pre;" direction="ltr">[M]</text></g><g transform="translate(710.5409671634868 226.78318068596843) rotate(0 17.5 12.5)"><text x="0" y="17" font-family="Virgil, Segoe UI Emoji" font-size="20px" fill="#000000" text-anchor="start" style="white-space: pre;" direction="ltr">[P]</text></g><g stroke-linecap="round"><g transform="translate(624.1773197025493 221.6467976293278) rotate(0 0.3929196909126631 18.035831944085658)"><path d="M0.88 0.37 C0.06 8.49, -0.24 15.23, -0.03 35.47 M0.25 0.27 C1.08 9.85, 0.11 18.46, 0.56 35.8" stroke="#000000" stroke-width="1" fill="none"></path></g></g><mask></mask><g stroke-linecap="round"><g transform="translate(689.6319095462993 224.3740925512028) rotate(0 0.16151876432263634 13.473811679054052)"><path d="M0.37 0.24 C0.74 6.67, -0.51 13.42, 0.01 26.59 M0.27 0.82 C0.42 9.99, -0.4 20.83, 0.34 26.7" stroke="#000000" stroke-width="1" fill="none"></path></g></g><mask></mask><g transform="translate(423.10111893177475 90.28867718399266) rotate(0 45.49999999999994 12.5)"><text x="0" y="17" font-family="Virgil, Segoe UI Emoji" font-size="20px" fill="#000000" text-anchor="start" style="white-space: pre;" direction="ltr">String[0]</text></g><g transform="translate(427.18557733880755 156.87806336042573) rotate(0 41.49999999999994 12.5)"><text x="0" y="17" font-family="Virgil, Segoe UI Emoji" font-size="20px" fill="#000000" text-anchor="start" style="white-space: pre;" direction="ltr">String[1]</text></g><g transform="translate(428.5823658255241 228.05837146133632) rotate(0 45.99999999999994 12.5)"><text x="0" y="17" font-family="Virgil, Segoe UI Emoji" font-size="20px" fill="#000000" text-anchor="start" style="white-space: pre;" direction="ltr">String[2]</text></g><g transform="translate(764.7666483107323 70.3165602554518) rotate(0 30.08375537566758 99.6524453174552)" stroke="none"><path fill="#000000" d="M -0.27,-2.17 Q -0.27,-2.17 0.95,-2.37 2.18,-2.57 4.78,-2.59 7.37,-2.60 9.03,-2.20 10.70,-1.80 12.44,-1.27 14.17,-0.75 15.83,-0.02 17.49,0.71 18.88,1.51 20.28,2.31 21.66,3.77 23.04,5.23 24.19,7.02 25.34,8.81 26.02,11.01 26.70,13.21 27.11,15.21 27.52,17.20 27.73,19.04 27.94,20.88 28.01,22.75 28.09,24.63 28.26,26.43 28.43,28.23 28.64,30.08 28.86,31.92 29.10,33.79 29.34,35.66 29.83,37.76 30.31,39.85 30.82,42.04 31.32,44.22 31.84,46.21 32.36,48.21 32.90,50.13 33.44,52.06 34.09,54.09 34.74,56.12 35.48,58.38 36.22,60.65 37.39,62.56 38.56,64.47 39.85,66.58 41.14,68.68 42.41,70.09 43.68,71.50 45.01,72.68 46.33,73.85 47.49,74.56 48.65,75.26 49.75,75.82 50.85,76.37 52.61,76.67 54.36,76.98 55.78,76.63 57.20,76.29 58.07,75.76 58.93,75.23 59.24,75.17 59.55,75.12 59.86,75.14 60.18,75.16 60.48,75.25 60.78,75.35 61.05,75.51 61.32,75.67 61.54,75.90 61.76,76.12 61.92,76.39 62.08,76.66 62.18,76.96 62.27,77.26 62.29,77.57 62.31,77.89 62.25,78.20 62.19,78.51 62.06,78.79 61.93,79.08 61.74,79.33 61.54,79.57 61.30,79.77 61.05,79.96 60.76,80.09 60.47,80.22 59.42,80.01 58.38,79.80 56.89,80.39 55.40,80.98 53.69,81.56 51.98,82.15 50.29,82.85 48.59,83.55 47.29,84.60 45.99,85.65 45.22,86.78 44.45,87.91 43.83,89.35 43.21,90.79 42.78,92.40 42.35,94.02 41.99,95.79 41.63,97.56 41.26,100.27 40.88,102.97 40.69,105.79 40.51,108.62 40.41,111.37 40.31,114.12 40.25,116.98 40.20,119.85 40.32,122.57 40.44,125.30 40.63,127.84 40.83,130.39 40.91,132.90 40.99,135.41 40.87,137.92 40.74,140.42 40.69,143.14 40.63,145.85 40.45,148.90 40.27,151.94 39.72,155.15 39.17,158.36 38.79,161.06 38.41,163.76 37.77,166.82 37.13,169.87 36.23,172.76 35.33,175.64 34.65,178.20 33.98,180.77 33.38,183.24 32.78,185.72 32.23,187.73 31.67,189.75 31.00,191.48 30.32,193.22 29.38,194.59 28.44,195.96 27.40,197.06 26.36,198.17 24.95,198.95 23.55,199.73 21.60,200.18 19.66,200.63 17.79,200.94 15.92,201.26 14.29,201.44 12.66,201.62 11.19,201.73 9.71,201.84 7.82,201.92 5.93,202.00 5.58,201.95 5.24,201.90 4.93,201.74 4.61,201.58 4.37,201.33 4.13,201.08 3.97,200.76 3.82,200.44 3.78,200.09 3.74,199.75 3.81,199.40 3.88,199.06 4.06,198.76 4.24,198.45 4.50,198.22 4.76,197.99 5.09,197.86 5.41,197.73 5.76,197.70 6.11,197.68 6.45,197.77 6.79,197.86 7.08,198.05 7.38,198.25 7.59,198.52 7.81,198.80 7.92,199.13 8.04,199.46 8.04,199.81 8.05,200.16 7.94,200.50 7.83,200.83 7.62,201.11 7.41,201.39 7.13,201.59 6.84,201.79 6.50,201.89 6.16,201.99 5.81,201.97 5.46,201.96 5.14,201.83 4.81,201.71 4.54,201.48 4.27,201.26 4.09,200.96 3.90,200.66 3.82,200.32 3.74,199.98 3.78,199.63 3.81,199.28 3.95,198.96 4.10,198.64 4.33,198.39 4.57,198.13 4.88,197.96 5.19,197.79 5.53,197.73 5.88,197.67 5.88,197.67 5.88,197.67 7.71,197.67 9.54,197.66 10.93,197.66 12.31,197.65 13.78,197.56 15.25,197.47 17.02,197.14 18.80,196.81 21.34,196.14 23.88,195.47 24.86,194.67 25.83,193.87 26.72,192.94 27.61,192.01 28.35,190.51 29.08,189.01 29.65,187.06 30.22,185.10 30.82,182.60 31.43,180.09 32.12,177.47 32.81,174.85 33.68,172.09 34.54,169.33 35.16,166.36 35.78,163.39 36.16,160.65 36.54,157.91 37.07,154.85 37.60,151.78 37.77,148.79 37.94,145.81 37.98,143.05 38.02,140.29 38.13,137.90 38.23,135.52 38.13,133.07 38.03,130.62 37.79,128.03 37.56,125.45 37.39,122.64 37.22,119.83 37.21,116.94 37.20,114.06 37.21,111.26 37.22,108.47 37.29,105.53 37.36,102.59 37.59,99.71 37.82,96.84 38.16,94.94 38.49,93.03 38.98,91.10 39.46,89.16 40.26,87.33 41.06,85.49 42.19,84.00 43.32,82.52 45.01,81.04 46.71,79.57 48.44,78.69 50.17,77.81 52.16,76.86 54.14,75.90 56.54,75.57 58.93,75.23 59.24,75.17 59.55,75.12 59.86,75.14 60.18,75.16 60.48,75.25 60.78,75.35 61.05,75.51 61.32,75.67 61.54,75.90 61.76,76.12 61.92,76.39 62.08,76.66 62.18,76.96 62.27,77.26 62.29,77.57 62.31,77.89 62.25,78.20 62.19,78.51 62.06,78.79 61.93,79.08 61.74,79.33 61.54,79.57 61.30,79.77 61.05,79.96 60.76,80.09 60.47,80.22 59.25,80.64 58.02,81.07 56.87,81.20 55.71,81.34 54.50,81.27 53.28,81.21 52.24,80.86 51.20,80.50 50.08,80.04 48.97,79.59 47.83,78.80 46.68,78.02 45.47,77.04 44.26,76.05 42.91,74.71 41.56,73.36 40.18,71.75 38.81,70.13 37.49,68.03 36.17,65.93 34.85,63.75 33.52,61.57 32.74,59.31 31.96,57.05 31.23,54.97 30.50,52.88 29.95,50.95 29.41,49.01 28.84,47.00 28.28,44.99 27.68,42.85 27.08,40.70 26.43,38.42 25.77,36.14 25.50,34.26 25.23,32.38 24.98,30.49 24.73,28.60 24.53,26.69 24.33,24.78 24.25,23.02 24.17,21.26 24.02,19.64 23.88,18.01 23.44,16.21 23.01,14.41 22.44,12.77 21.87,11.14 20.81,9.71 19.74,8.28 18.82,7.25 17.90,6.23 16.78,5.54 15.66,4.85 14.32,4.26 12.97,3.68 11.27,3.27 9.57,2.87 8.24,2.55 6.91,2.23 4.83,2.09 2.75,1.95 1.51,2.06 0.27,2.17 0.00,2.17 -0.25,2.17 -0.51,2.11 -0.76,2.05 -1.00,1.92 -1.23,1.80 -1.43,1.63 -1.63,1.45 -1.78,1.24 -1.93,1.02 -2.02,0.77 -2.12,0.53 -2.15,0.26 -2.18,0.00 -2.15,-0.25 -2.12,-0.51 -2.03,-0.76 -1.94,-1.01 -1.79,-1.22 -1.64,-1.44 -1.44,-1.62 -1.25,-1.79 -1.01,-1.92 -0.78,-2.04 -0.52,-2.10 -0.27,-2.17 -0.27,-2.17 L -0.27,-2.17 Z"></path></g><g transform="translate(864.6876820022608 137.56316151032945) rotate(0 122 98)"><text x="0" y="17.5" font-family="Virgil, Segoe UI Emoji" font-size="20px" fill="#000000" text-anchor="start" style="white-space: pre;" direction="ltr">size = 3</text><text x="0" y="42" font-family="Virgil, Segoe UI Emoji" font-size="20px" fill="#000000" text-anchor="start" style="white-space: pre;" direction="ltr"></text><text x="0" y="66.5" font-family="Virgil, Segoe UI Emoji" font-size="20px" fill="#000000" text-anchor="start" style="white-space: pre;" direction="ltr">This means I would need</text><text x="0" y="91" font-family="Virgil, Segoe UI Emoji" font-size="20px" fill="#000000" text-anchor="start" style="white-space: pre;" direction="ltr">3 stacks in total</text><text x="0" y="115.5" font-family="Virgil, Segoe UI Emoji" font-size="20px" fill="#000000" text-anchor="start" style="white-space: pre;" direction="ltr"></text><text x="0" y="140" font-family="Virgil, Segoe UI Emoji" font-size="20px" fill="#000000" text-anchor="start" style="white-space: pre;" direction="ltr">(The size comes from</text><text x="0" y="164.5" font-family="Virgil, Segoe UI Emoji" font-size="20px" fill="#000000" text-anchor="start" style="white-space: pre;" direction="ltr">the last parsed</text><text x="0" y="189" font-family="Virgil, Segoe UI Emoji" font-size="20px" fill="#000000" text-anchor="start" style="white-space: pre;" direction="ltr">crate line) </text></g><g stroke-linecap="round" transform="translate(1166.982302903045 65.8178668429482) rotate(0 26.33052214611746 89.99039299472449)"><path d="M-1.08 0.88 C21.77 -0.38, 38.75 -1.31, 54.42 0.08 M0.2 -0.82 C19.88 1.22, 40.44 0.42, 53.25 -0.15 M52.13 0.39 C54.98 46.26, 54.11 89.39, 54.31 179.37 M52.03 0.46 C52.94 45.78, 52.51 90.28, 52.23 179.62 M53.84 179.01 C33.13 178.25, 13.88 179.62, -0.24 179.05 M52.35 180.77 C38.89 180.56, 24.77 180.03, -0.39 179.72 M-1.33 181.33 C1.73 119.45, -0.98 57.37, 1.45 0.99 M0 179.85 C-0.82 141.24, -0.45 101.46, 0.58 -0.49" stroke="#000000" stroke-width="1" fill="none"></path></g><g stroke-linecap="round" transform="translate(1300.1014350297337 65.8178668429482) rotate(0 26.33052214611746 89.99039299472449)"><path d="M-1.15 0 C18.14 -1.55, 37.91 -0.8, 52.79 1.16 M0.22 0.17 C13.68 0.26, 26.95 0.21, 53.36 0.33 M51.25 -0.45 C54.3 37.2, 55.53 74.39, 52.4 178.22 M52.39 -0.65 C52.22 61.37, 52.92 124.73, 53.42 180.11 M53.77 178.96 C37.6 178.18, 23.36 178.11, -1.69 179.87 M52.73 179.3 C35.65 180.99, 17.97 181.05, 0.59 179.14 M-0.02 179.95 C-3.29 120.16, -0.79 62.2, -1.21 0.44 M-0.56 179.87 C-1.5 120.05, -0.62 60.15, -0.89 0.23" stroke="#000000" stroke-width="1" fill="none"></path></g><g stroke-linecap="round" transform="translate(1433.2205671564225 65.8178668429482) rotate(0 26.33052214611746 89.99039299472449)"><path d="M0 -0.25 C9.96 1.42, 22.21 0.43, 53.82 -0.98 M0.17 0.46 C19.58 0.4, 39.1 0.59, 52.99 -0.91 M52.21 0.22 C50.59 69.65, 50.25 136.14, 50.9 180.9 M52.01 -0.52 C50.99 54.94, 52.12 110.27, 52.79 179.75 M51.65 179.51 C39.81 180.15, 28.65 178.58, -0.11 180.66 M51.98 180.54 C37.53 180.47, 21.56 180.61, -0.84 180.26 M-0.03 178.23 C-2.19 111.38, -1.05 40.08, 0.44 0.66 M-0.11 180.01 C0.37 111.64, 0.42 40.6, 0.23 -0.01" stroke="#000000" stroke-width="1" fill="none"></path></g><g transform="translate(1149.6508491467207 266.6288346055525) rotate(0 40.5 12.5)"><text x="0" y="17" font-family="Virgil, Segoe UI Emoji" font-size="20px" fill="#000000" text-anchor="start" style="white-space: pre;" direction="ltr">stack 0</text></g><g transform="translate(1280.8658889816445 266.49513964620877) rotate(0 36.5 12.5)"><text x="0" y="17" font-family="Virgil, Segoe UI Emoji" font-size="20px" fill="#000000" text-anchor="start" style="white-space: pre;" direction="ltr">stack 1</text></g><g transform="translate(1412.8517629037683 265.16190786270323) rotate(0 41 12.5)"><text x="0" y="17" font-family="Virgil, Segoe UI Emoji" font-size="20px" fill="#000000" text-anchor="start" style="white-space: pre;" direction="ltr">stack 2</text></g><g transform="translate(1175.648040969792 208.4350574291289) rotate(0 19 12.5)"><text x="0" y="17" font-family="Virgil, Segoe UI Emoji" font-size="20px" fill="#000000" text-anchor="start" style="white-space: pre;" direction="ltr">[Z]</text></g><g transform="translate(1176.3126055929106 160.83972073869268) rotate(0 17.5 12.5)"><text x="0" y="17" font-family="Virgil, Segoe UI Emoji" font-size="20px" fill="#000000" text-anchor="start" style="white-space: pre;" direction="ltr">[N]</text></g><g transform="translate(1309.7650344768908 205.43500364392804) rotate(0 18.5 12.5)"><text x="0" y="17" font-family="Virgil, Segoe UI Emoji" font-size="20px" fill="#000000" text-anchor="start" style="white-space: pre;" direction="ltr">[M]</text></g><g transform="translate(1306.967343754503 143.10871398264976) rotate(0 17.5 12.5)"><text x="0" y="17" font-family="Virgil, Segoe UI Emoji" font-size="20px" fill="#000000" text-anchor="start" style="white-space: pre;" direction="ltr">[C]</text></g><g transform="translate(1310.9669495963403 81.78193162366773) rotate(0 18.5 12.5)"><text x="0" y="17" font-family="Virgil, Segoe UI Emoji" font-size="20px" fill="#000000" text-anchor="start" style="white-space: pre;" direction="ltr">[D]</text></g><g transform="translate(1442.2863418897307 211.10143148746033) rotate(0 17.5 12.5)"><text x="0" y="17" font-family="Virgil, Segoe UI Emoji" font-size="20px" fill="#000000" text-anchor="start" style="white-space: pre;" direction="ltr">[P]</text></g><g stroke-linecap="round"><g transform="translate(886.0863622818642 97.80516727131436) rotate(0 120.83321843200258 -2.176290253197706)"><path d="M-1.23 0.95 C79.69 -2.4, 159.17 -3.87, 241.71 -5.3 M-0.53 -0.08 C74.76 -0.11, 149.77 -1.54, 242.89 -3.91" stroke="#000000" stroke-width="1" fill="none"></path></g><g transform="translate(886.0863622818642 97.80516727131436) rotate(0 120.83321843200258 -2.176290253197706)"><path d="M213.47 8.16 C223.71 3.7, 232.21 -0.07, 240.99 -5.44 M214.31 6.91 C223.14 4, 231.66 0.4, 242.41 -3.75" stroke="#000000" stroke-width="1" fill="none"></path></g><g transform="translate(886.0863622818642 97.80516727131436) rotate(0 120.83321843200258 -2.176290253197706)"><path d="M212.99 -12.36 C223.32 -10.07, 231.98 -7.08, 240.99 -5.44 M213.83 -13.61 C222.9 -10.19, 231.57 -7.45, 242.41 -3.75" stroke="#000000" stroke-width="1" fill="none"></path></g></g><mask></mask><g transform="translate(896.8396618958998 10) rotate(0 104 24.5)"><text x="0" y="17.5" font-family="Virgil, Segoe UI Emoji" font-size="20px" fill="#000000" text-anchor="start" style="white-space: pre;" direction="ltr">The structure that </text><text x="0" y="42" font-family="Virgil, Segoe UI Emoji" font-size="20px" fill="#000000" text-anchor="start" style="white-space: pre;" direction="ltr">should be built</text></g><g stroke-linecap="round"><g transform="translate(177.71657433065252 160.98045280517505) rotate(0 90.55500066658351 1.1832256566241028)"><path d="M-1.08 -0.61 C42.85 1.11, 85.76 0.84, 181.3 1.76 M0.71 0.28 C73.56 -0.81, 145 0.47, 182.19 2.98" stroke="#000000" stroke-width="1" fill="none"></path></g><g transform="translate(177.71657433065252 160.98045280517505) rotate(0 90.55500066658351 1.1832256566241028)"><path d="M152.48 11.34 C159.96 10.35, 166.39 7.33, 180.68 2.05 M154.27 12.24 C165.87 7.54, 176.02 4.19, 181.57 3.27" stroke="#000000" stroke-width="1" fill="none"></path></g><g transform="translate(177.71657433065252 160.98045280517505) rotate(0 90.55500066658351 1.1832256566241028)"><path d="M153.41 -9.16 C160.62 -5.3, 166.83 -3.47, 180.68 2.05 M155.2 -8.26 C166.37 -4.8, 176.15 0, 181.57 3.27" stroke="#000000" stroke-width="1" fill="none"></path></g></g><mask></mask><g transform="translate(1189.8655647779767 457.60358086044255) rotate(0 122 12.5)"><text x="0" y="17" font-family="Virgil, Segoe UI Emoji" font-size="20px" fill="#000000" text-anchor="start" style="white-space: pre;" direction="ltr">How to build the stacks:</text></g><g transform="translate(1189.8655647779767 527.4996222500757) rotate(0 314.0000000000001 12.5)"><text x="0" y="17" font-family="Virgil, Segoe UI Emoji" font-size="20px" fill="#000000" text-anchor="start" style="white-space: pre;" direction="ltr">Go through the string[] containing the lines, from last to first</text></g><g stroke-linecap="round" transform="translate(1344.5460090122533 775.0719886873438) rotate(0 97.80861622947577 18.18182373046875)"><path d="M-1.77 0.54 C66.11 2.1, 135.29 0.37, 196.33 1.99 M0.51 -0.52 C44.07 0.13, 88.06 -0.78, 195.83 -0.34 M196.29 0.25 C194.39 9.16, 196.98 14.92, 196.36 36.1 M194.81 -0.49 C196.11 12.33, 195.48 24.96, 196.21 36.83 M194.87 35.19 C121.81 35.28, 45.51 36.53, -0.55 37.16 M196.02 36.7 C134.36 37.86, 73.73 38.43, -0.47 36.97 M-1.96 38.14 C1.12 26.82, 1.73 12.96, -1.33 1.9 M0.73 36.78 C1.31 25.31, -0.09 14.51, 0.63 -0.23" stroke="#000000" stroke-width="1" fill="none"></path></g><g transform="translate(1358.182422586472 784.7538124178126) rotate(0 11 12.5)"><text x="0" y="17" font-family="Virgil, Segoe UI Emoji" font-size="20px" fill="#000000" text-anchor="start" style="white-space: pre;" direction="ltr">[]</text></g><g transform="translate(1421.8187751255346 784.7538429353907) rotate(0 18.5 12.5)"><text x="0" y="17" font-family="Virgil, Segoe UI Emoji" font-size="20px" fill="#000000" text-anchor="start" style="white-space: pre;" direction="ltr">[D]</text></g><g transform="translate(1493.6369513950654 784.7538429353907) rotate(0 11 12.5)"><text x="0" y="17" font-family="Virgil, Segoe UI Emoji" font-size="20px" fill="#000000" text-anchor="start" style="white-space: pre;" direction="ltr">[]</text></g><g stroke-linecap="round"><g transform="translate(1407.2733039341283 779.6174598787501) rotate(0 0.023887923836809932 17.63993596844375)"><path d="M0.74 -1.19 C0.5 13.59, -1.74 23.17, 0.7 36.47 M0.68 -0.1 C0.34 8.44, -0.76 16.87, -0.69 35.79" stroke="#000000" stroke-width="1" fill="none"></path></g></g><mask></mask><g stroke-linecap="round"><g transform="translate(1472.7278937778779 782.3447548006251) rotate(0 -0.08734369464218616 13.803462921641767)"><path d="M-1.19 0.71 C2.06 5.06, 0.04 13.87, 1.01 26.23 M-0.1 0.21 C-0.12 8.33, -0.48 17.76, 0.34 27.4" stroke="#000000" stroke-width="1" fill="none"></path></g></g><mask></mask><g stroke-linecap="round" transform="translate(1344.2801069002844 699.0279798032456) rotate(0 97.80861622947577 18.18182373046875)"><path d="M0.71 1.99 C62.44 1.13, 128.65 2.17, 194.57 0.77 M0.21 -0.34 C73.58 -0.5, 148.26 0.54, 195.74 -0.49 M196.36 -0.26 C196.98 15.6, 197.38 25.7, 194.65 36.64 M196.21 0.47 C196.27 8.74, 194.77 17.61, 195.03 36.92 M195.07 37.16 C135.03 38.85, 75.6 38.61, 0.66 35.81 M195.14 36.97 C138.82 36.81, 82.17 36.31, 0.89 36.84 M-1.33 38.27 C-0.24 20.44, 0.01 9.7, 0.83 1.94 M0.63 36.13 C-0.78 26.56, 0.3 14.74, 0.03 0.82" stroke="#000000" stroke-width="1" fill="none"></path></g><g transform="translate(1357.9165204745032 708.7098035337143) rotate(0 17.5 12.5)"><text x="0" y="17" font-family="Virgil, Segoe UI Emoji" font-size="20px" fill="#000000" text-anchor="start" style="white-space: pre;" direction="ltr">[N]</text></g><g transform="translate(1421.5528730135657 708.7098340512924) rotate(0 17.5 12.5)"><text x="0" y="17" font-family="Virgil, Segoe UI Emoji" font-size="20px" fill="#000000" text-anchor="start" style="white-space: pre;" direction="ltr">[C]</text></g><g transform="translate(1493.371049283097 708.7098340512924) rotate(0 11 12.5)"><text x="0" y="17" font-family="Virgil, Segoe UI Emoji" font-size="20px" fill="#000000" text-anchor="start" style="white-space: pre;" direction="ltr">[]</text></g><g stroke-linecap="round"><g transform="translate(1407.0074018221594 703.5734509946518) rotate(0 0.0018784482963383198 18.104332535993308)"><path d="M0.7 1.01 C-1.32 14.92, 1.34 29.67, -0.2 35.87 M-0.69 0.34 C-0.19 8.93, 0.44 19.64, -0.19 35.83" stroke="#000000" stroke-width="1" fill="none"></path></g></g><mask></mask><g stroke-linecap="round"><g transform="translate(1472.4619916659094 706.3007459165268) rotate(0 0.4778032753459911 13.048393942881376)"><path d="M1.01 -1.04 C0.76 7.71, 1.35 11.98, 0.42 26.59 M0.34 0.13 C-0.68 6.49, 0.62 11.29, 0.37 27.14" stroke="#000000" stroke-width="1" fill="none"></path></g></g><mask></mask><g stroke-linecap="round" transform="translate(1339.225747775493 619.7736878487592) rotate(0 97.80861622947577 18.18182373046875)"><path d="M-1.04 0.77 C60.01 0.36, 116.59 -0.57, 194.93 -1.79 M0.13 -0.49 C45.79 0.15, 89.88 -0.29, 195.49 0.54 M194.65 0.28 C194.83 13.46, 194.38 30.07, 196.55 38.02 M195.03 0.56 C195.48 9.86, 196.11 19.71, 196.01 36.48 M196.28 35.81 C126.54 37.31, 58.77 36.21, 1.21 36.57 M196.5 36.84 C147.18 35.22, 96.59 33.78, 0.95 36.39 M0.83 38.3 C-0.18 27.98, 0.22 22.57, -0.46 -1.88 M0.03 37.19 C-0.73 22.17, -0.51 7.95, 0.72 -0.66" stroke="#000000" stroke-width="1" fill="none"></path></g><g transform="translate(1352.8621613497116 629.455511579228) rotate(0 19 12.5)"><text x="0" y="17" font-family="Virgil, Segoe UI Emoji" font-size="20px" fill="#000000" text-anchor="start" style="white-space: pre;" direction="ltr">[Z]</text></g><g transform="translate(1416.4985138887741 629.4555420968061) rotate(0 18.5 12.5)"><text x="0" y="17" font-family="Virgil, Segoe UI Emoji" font-size="20px" fill="#000000" text-anchor="start" style="white-space: pre;" direction="ltr">[M]</text></g><g transform="translate(1488.3166901583054 629.4555420968061) rotate(0 17.5 12.5)"><text x="0" y="17" font-family="Virgil, Segoe UI Emoji" font-size="20px" fill="#000000" text-anchor="start" style="white-space: pre;" direction="ltr">[P]</text></g><g stroke-linecap="round"><g transform="translate(1401.953042697368 624.3191590401655) rotate(0 -0.06724777026101947 18.039899006020278)"><path d="M-0.2 0.42 C-0.4 10.2, -1.11 22.6, 0.67 35.71 M-0.19 0.37 C0.14 9.45, 1.24 18.56, -0.81 34.97" stroke="#000000" stroke-width="1" fill="none"></path></g></g><mask></mask><g stroke-linecap="round"><g transform="translate(1467.407632541118 627.0464539620405) rotate(0 -0.16050119998681112 13.362561636138707)"><path d="M0.42 -0.69 C-1.61 8.99, -1.2 21.44, 0.25 26.3 M0.37 -0.13 C0.76 11.21, 0.96 19.68, -0.49 27.41" stroke="#000000" stroke-width="1" fill="none"></path></g></g><mask></mask><g transform="translate(1204.9094308072567 779.2661404987348) rotate(0 45.5 12.5)"><text x="0" y="17" font-family="Virgil, Segoe UI Emoji" font-size="20px" fill="#000000" text-anchor="start" style="white-space: pre;" direction="ltr">String[0]</text></g><g transform="translate(1210.337995263044 706.0633987735017) rotate(0 41.5 12.5)"><text x="0" y="17" font-family="Virgil, Segoe UI Emoji" font-size="20px" fill="#000000" text-anchor="start" style="white-space: pre;" direction="ltr">String[1]</text></g><g transform="translate(1206.3580888203428 630.7307328721739) rotate(0 46 12.5)"><text x="0" y="17" font-family="Virgil, Segoe UI Emoji" font-size="20px" fill="#000000" text-anchor="start" style="white-space: pre;" direction="ltr">String[2]</text></g><g stroke-linecap="round"><g transform="translate(1164.3266022812422 626.0580665742258) rotate(0 -1.1820884232238313 92.03256014725355)"><path d="M-1.71 -1.42 C-2.47 69.98, -1.49 139.36, -0.39 185.48 M-0.65 -0.87 C-1.58 68.56, -1.17 135.01, -0.81 184.89" stroke="#000000" stroke-width="1" fill="none"></path></g><g transform="translate(1164.3266022812422 626.0580665742258) rotate(0 -1.1820884232238313 92.03256014725355)"><path d="M-12.95 155.34 C-9.36 168.18, -4.5 178.94, -1.2 184.88 M-11.89 155.89 C-8.21 168, -4 177.13, -1.62 184.29" stroke="#000000" stroke-width="1" fill="none"></path></g><g transform="translate(1164.3266022812422 626.0580665742258) rotate(0 -1.1820884232238313 92.03256014725355)"><path d="M7.57 155.22 C3.51 167.98, 0.74 178.79, -1.2 184.88 M8.63 155.77 C4.84 167.91, 1.57 177.08, -1.62 184.29" stroke="#000000" stroke-width="1" fill="none"></path></g></g><mask></mask><g stroke-linecap="round" transform="translate(2037.5683061827076 625.019400333436) rotate(0 97.80861622947577 18.18182373046875)"><path d="M1.38 1.57 C39.18 1.86, 83.73 1.9, 196.76 -1.43 M0.22 0.79 C47.99 0.88, 97.81 0.72, 194.62 -0.74 M194.37 1.07 C196.77 10.98, 196.61 23.29, 194.1 34.92 M194.69 0.78 C194.31 13.4, 195.84 26.76, 195.22 35.84 M195.45 34.77 C137.29 37.46, 81.68 37.92, -0.36 38.25 M196.62 36.06 C134.4 37.84, 72.88 37.18, 0.37 36.88 M1.25 35.28 C-1.19 21.87, -0.59 9.29, -1.89 -0.92 M-0.21 36.75 C0.62 27.78, 0.21 17.78, 0.08 -0.03" stroke="#000000" stroke-width="1" fill="none"></path></g><g transform="translate(2051.2047197569264 634.7012240639048) rotate(0 19 12.5)"><text x="0" y="17" font-family="Virgil, Segoe UI Emoji" font-size="20px" fill="#000000" text-anchor="start" style="white-space: pre;" direction="ltr">[Z]</text></g><g transform="translate(2114.841072295989 634.7012545814829) rotate(0 18.5 12.5)"><text x="0" y="17" font-family="Virgil, Segoe UI Emoji" font-size="20px" fill="#000000" text-anchor="start" style="white-space: pre;" direction="ltr">[M]</text></g><g transform="translate(2186.65924856552 634.7012545814829) rotate(0 17.5 12.5)"><text x="0" y="17" font-family="Virgil, Segoe UI Emoji" font-size="20px" fill="#000000" text-anchor="start" style="white-space: pre;" direction="ltr">[P]</text></g><g stroke-linecap="round"><g transform="translate(2100.2956011045826 629.5648715248423) rotate(0 0.38883968702270977 18.03258290840313)"><path d="M1.52 1.82 C0.8 11.98, -1.39 26.47, -0.55 35.89 M1 0.18 C-1.14 12.7, 0.03 26.5, 0.62 34.83" stroke="#000000" stroke-width="1" fill="none"></path></g></g><mask></mask><g stroke-linecap="round"><g transform="translate(2165.7501909483326 632.2921664467173) rotate(0 0.6002121116034687 13.929307245183736)"><path d="M1.82 1.14 C-1.19 4.51, -0.11 10.57, 0.43 28.85 M0.18 -0.99 C-0.64 7.23, -0.28 14.72, -0.62 27.81" stroke="#000000" stroke-width="1" fill="none"></path></g></g><mask></mask><g transform="translate(1904.7006472275575 635.9764453568508) rotate(0 46 12.5)"><text x="0" y="17" font-family="Virgil, Segoe UI Emoji" font-size="20px" fill="#000000" text-anchor="start" style="white-space: pre;" direction="ltr">String[2]</text></g><g stroke-linecap="round"><g transform="translate(1593.1120441843218 640.8438197017249) rotate(0 122.45724164885769 0.32402912415130913)"><path d="M-0.47 0.68 C83.14 0.82, 168 2.1, 245.12 0.47 M0.12 0.7 C65.04 0.23, 132.26 -0.94, 245.39 -0.57" stroke="#000000" stroke-width="1" fill="none"></path></g><g transform="translate(1593.1120441843218 640.8438197017249) rotate(0 122.45724164885769 0.32402912415130913)"><path d="M216.62 10.53 C226.01 6.34, 236.89 4.4, 244.34 0 M217.35 10.55 C223.82 7.59, 233.12 3.43, 244.67 -1.26" stroke="#000000" stroke-width="1" fill="none"></path></g><g transform="translate(1593.1120441843218 640.8438197017249) rotate(0 122.45724164885769 0.32402912415130913)"><path d="M216.62 -9.99 C225.95 -7.18, 236.83 -2.14, 244.34 0 M217.34 -9.98 C223.85 -7.44, 233.15 -6.12, 244.67 -1.26" stroke="#000000" stroke-width="1" fill="none"></path></g></g><mask></mask><g transform="translate(1648.2223775688553 597.3957990069083) rotate(0 24 12.5)"><text x="0" y="17" font-family="Virgil, Segoe UI Emoji" font-size="20px" fill="#000000" text-anchor="start" style="white-space: pre;" direction="ltr">Then</text></g><g stroke-linecap="round"><g transform="translate(2067.598716151453 682.5126413747139) rotate(0 2.3969914119199984 72.73392439168879)"><path d="M1.94 -1.89 C0.41 50.24, 2.87 101.77, 4.07 144.6 M0.73 -0.79 C1.06 30.14, 0.65 61.55, 2.02 147.36" stroke="#000000" stroke-width="1" fill="none"></path></g><g transform="translate(2067.598716151453 682.5126413747139) rotate(0 2.3969914119199984 72.73392439168879)"><path d="M-6.66 117.41 C-5.53 128.03, -0.29 138.01, 3.4 145.45 M-7.87 118.52 C-6.31 124.77, -5.07 131.51, 1.36 148.21" stroke="#000000" stroke-width="1" fill="none"></path></g><g transform="translate(2067.598716151453 682.5126413747139) rotate(0 2.3969914119199984 72.73392439168879)"><path d="M13.86 117.15 C7.79 127.77, 5.83 137.84, 3.4 145.45 M12.65 118.26 C9.94 124.63, 6.91 131.43, 1.36 148.21" stroke="#000000" stroke-width="1" fill="none"></path></g></g><mask></mask><g transform="translate(1996.3585687130658 871.6034501256227) rotate(0 79.5 12.5)"><text x="0" y="17" font-family="Virgil, Segoe UI Emoji" font-size="20px" fill="#000000" text-anchor="start" style="white-space: pre;" direction="ltr">Add to stack 0</text></g><g stroke-linecap="round"><g transform="translate(2134.8064551987773 683.8567925458683) rotate(0 -0.7205144740046308 50.89721610045058)"><path d="M-1.89 -0.64 C0.5 23.1, 1.7 47.32, -1.48 102.7 M-0.64 -0.9 C0.02 40.58, -0.91 79.75, 0.08 102.42" stroke="#000000" stroke-width="1" fill="none"></path></g><g transform="translate(2134.8064551987773 683.8567925458683) rotate(0 -0.7205144740046308 50.89721610045058)"><path d="M-12.61 73.79 C-7.99 80.58, -4.33 87.92, -1.39 102.96 M-11.35 73.52 C-6.21 86.29, -2.96 96.72, 0.17 102.68" stroke="#000000" stroke-width="1" fill="none"></path></g><g transform="translate(2134.8064551987773 683.8567925458683) rotate(0 -0.7205144740046308 50.89721610045058)"><path d="M7.91 73.39 C7.86 80.38, 6.85 87.82, -1.39 102.96 M9.16 73.13 C6.35 86.01, 1.65 96.59, 0.17 102.68" stroke="#000000" stroke-width="1" fill="none"></path></g></g><mask></mask><g transform="translate(2121.364853242433 811.1164669340709) rotate(0 75.5 12.5)"><text x="0" y="17" font-family="Virgil, Segoe UI Emoji" font-size="20px" fill="#000000" text-anchor="start" style="white-space: pre;" direction="ltr">Add to stack 1</text></g><g stroke-linecap="round"><g transform="translate(2203.358480784456 685.2009888394227) rotate(0 1.7623368054062212 23.267491923099044)"><path d="M0.01 0.03 C1.18 12.94, 0.92 22.98, 2.73 44.56 M0.5 0.32 C1.47 14.2, 1.65 29.06, 3.52 46.5" stroke="#000000" stroke-width="1" fill="none"></path></g><g transform="translate(2203.358480784456 685.2009888394227) rotate(0 1.7623368054062212 23.267491923099044)"><path d="M-6.11 25.77 C-3.27 32.64, -1.86 36.69, 3.56 45.36 M-5.62 26.07 C-2.33 32.21, 0.02 39.32, 4.34 47.31" stroke="#000000" stroke-width="1" fill="none"></path></g><g transform="translate(2203.358480784456 685.2009888394227) rotate(0 1.7623368054062212 23.267491923099044)"><path d="M9.49 24.44 C8.58 31.71, 6.24 36.08, 3.56 45.36 M9.98 24.73 C8.41 31.24, 5.91 38.77, 4.34 47.31" stroke="#000000" stroke-width="1" fill="none"></path></g></g><mask></mask><g transform="translate(2184.5402741434928 756.0060884271372) rotate(0 80 12.5)"><text x="0" y="17" font-family="Virgil, Segoe UI Emoji" font-size="20px" fill="#000000" text-anchor="start" style="white-space: pre;" direction="ltr">Add to stack 2</text></g><g transform="translate(1264.616569894124 1087.8456255264798) rotate(0 306.5 12.5)"><text x="0" y="17" font-family="Virgil, Segoe UI Emoji" font-size="20px" fill="#000000" text-anchor="start" style="white-space: pre;" direction="ltr">Problem: How to parse the strings to become "crane content"?</text></g><g transform="translate(1277.0652293248304 1160.4626778496615) rotate(0 124 12)"><text x="0" y="19" font-family="Cascadia, Segoe UI Emoji" font-size="20px" fill="#000000" text-anchor="start" style="white-space: pre;" direction="ltr">String[0] = "    [D]"</text></g><g transform="translate(1277.0652293248304 1203.0412870989778) rotate(0 124 12)"><text x="0" y="19" font-family="Cascadia, Segoe UI Emoji" font-size="20px" fill="#000000" text-anchor="start" style="white-space: pre;" direction="ltr">String[1] = "[N] [C]"</text></g><g transform="translate(1277.0652293248304 1243.4993780122531) rotate(0 147.5 12)"><text x="0" y="19" font-family="Cascadia, Segoe UI Emoji" font-size="20px" fill="#000000" text-anchor="start" style="white-space: pre;" direction="ltr">String[2] = "[Z] [M] [P]"</text></g><g transform="translate(1683.6071879409196 1144.0449657144854) rotate(0 373.5 24.5)"><text x="0" y="17.5" font-family="Virgil, Segoe UI Emoji" font-size="20px" fill="#000000" text-anchor="start" style="white-space: pre;" direction="ltr">Do a personalized for loop, starting by position 2 (first crane item on line)</text><text x="0" y="42" font-family="Virgil, Segoe UI Emoji" font-size="20px" fill="#000000" text-anchor="start" style="white-space: pre;" direction="ltr">and then jump 4 carachters to get next</text></g><g transform="translate(1682.6930423520575 1216.2195218801476) rotate(0 124 12)"><text x="0" y="19" font-family="Cascadia, Segoe UI Emoji" font-size="20px" fill="#000000" text-anchor="start" style="white-space: pre;" direction="ltr">String[0] = "    [D]"</text></g><g transform="translate(1682.6930423520575 1260.1434842163064) rotate(0 124 12)"><text x="0" y="19" font-family="Cascadia, Segoe UI Emoji" font-size="20px" fill="#000000" text-anchor="start" style="white-space: pre;" direction="ltr">String[1] = "[N] [C]"</text></g><g transform="translate(1682.6930423520575 1301.3311216986374) rotate(0 147.5 12)"><text x="0" y="19" font-family="Cascadia, Segoe UI Emoji" font-size="20px" fill="#000000" text-anchor="start" style="white-space: pre;" direction="ltr">String[2] = "[Z] [M] [P]"</text></g><g transform="translate(1689.5758724377329 1401.747123708051) rotate(0 212 35.5)"><text x="0" y="18.666666666666668" font-family="Cascadia, Segoe UI Emoji" font-size="20px" fill="#000000" text-anchor="start" style="white-space: pre;" direction="ltr"></text><text x="0" y="42.333333333333336" font-family="Cascadia, Segoe UI Emoji" font-size="20px" fill="#000000" text-anchor="start" style="white-space: pre;" direction="ltr"></text><text x="0" y="66" font-family="Cascadia, Segoe UI Emoji" font-size="20px" fill="#000000" text-anchor="start" style="white-space: pre;" direction="ltr">[" ", " ", " ", " ", "[", "D", "]"5]</text></g><g stroke-linecap="round"><g transform="translate(1779.8542467560824 1583.116398822077) rotate(0 0.023924158074123625 -54.338921715853644)"><path d="M-0.05 -0.28 C1.46 -38.2, -1.09 -73.12, 0.82 -109.25 M-0.77 0.6 C1.05 -32.93, 0.74 -65.46, -0.04 -109.27" stroke="#000000" stroke-width="1" fill="none"></path></g><g transform="translate(1779.8542467560824 1583.116398822077) rotate(0 0.023924158074123625 -54.338921715853644)"><path d="M10.58 -81.52 C8.62 -91.74, 2.7 -98.92, 1.56 -108.94 M9.85 -80.64 C8.19 -90.03, 4.96 -98.41, 0.7 -108.96" stroke="#000000" stroke-width="1" fill="none"></path></g><g transform="translate(1779.8542467560824 1583.116398822077) rotate(0 0.023924158074123625 -54.338921715853644)"><path d="M-9.94 -81.22 C-4.92 -91.46, -3.86 -98.74, 1.56 -108.94 M-10.66 -80.34 C-6.25 -89.78, -3.41 -98.25, 0.7 -108.96" stroke="#000000" stroke-width="1" fill="none"></path></g></g><mask></mask><g transform="translate(1743.5048744597357 1604.9266562864868) rotate(0 54 12.5)"><text x="0" y="17" font-family="Virgil, Segoe UI Emoji" font-size="20px" fill="#000000" text-anchor="start" style="white-space: pre;" direction="ltr">start here</text></g><g transform="translate(1691.6470850143874 1395.5605262512627) rotate(0 110.5 12.5)"><text x="0" y="17" font-family="Virgil, Segoe UI Emoji" font-size="20px" fill="#000000" text-anchor="start" style="white-space: pre;" direction="ltr">Decomposing string[0]:</text></g><g transform="translate(1838.4142227556285 1547.892297588679) rotate(0 88.54950818899306 -24.46119509784569)" stroke="none"><path fill="#000000" d="M 0,-1.61 Q 0,-1.61 1.40,-1.69 2.81,-1.78 5.09,-1.72 7.38,-1.65 12.57,-1.60 17.76,-1.56 30.66,-1.52 43.55,-1.49 55.75,-2.03 67.95,-2.56 79.36,-2.79 90.76,-3.01 96.98,-3.38 103.20,-3.74 108.62,-4.46 114.04,-5.17 118.04,-5.75 122.05,-6.33 127.72,-6.86 133.40,-7.39 137.47,-7.89 141.54,-8.40 144.95,-8.89 148.36,-9.38 150.69,-9.59 153.02,-9.81 154.12,-10.27 155.22,-10.73 156.41,-11.02 157.61,-11.31 159.33,-11.59 161.05,-11.87 163.31,-11.68 165.56,-11.50 167.01,-11.47 168.45,-11.45 169.65,-11.11 170.84,-10.78 171.87,-10.36 172.89,-9.94 173.40,-12.18 173.91,-14.42 173.97,-16.75 174.03,-19.09 173.77,-20.75 173.51,-22.40 173.41,-24.41 173.31,-26.41 172.99,-27.92 172.66,-29.44 172.45,-30.78 172.23,-32.13 172.11,-33.27 171.98,-34.41 171.45,-35.57 170.92,-36.74 170.73,-37.99 170.54,-39.23 170.42,-41.06 170.30,-42.88 170.24,-44.03 170.19,-45.18 170.16,-47.05 170.14,-48.92 170.22,-49.40 170.30,-49.89 170.53,-50.32 170.76,-50.76 171.12,-51.09 171.47,-51.43 171.92,-51.64 172.37,-51.85 172.86,-51.90 173.34,-51.95 173.82,-51.85 174.31,-51.74 174.73,-51.49 175.15,-51.23 175.47,-50.86 175.78,-50.48 175.97,-50.03 176.15,-49.57 176.18,-49.08 176.20,-48.59 176.07,-48.11 175.94,-47.64 175.66,-47.23 175.39,-46.83 175.00,-46.53 174.60,-46.23 174.14,-46.08 173.67,-45.92 173.18,-45.92 172.69,-45.92 172.22,-46.08 171.76,-46.23 171.36,-46.53 170.97,-46.83 170.70,-47.23 170.42,-47.64 170.29,-48.12 170.16,-48.59 170.19,-49.08 170.21,-49.57 170.39,-50.03 170.58,-50.48 170.89,-50.86 171.21,-51.23 171.63,-51.49 172.06,-51.74 172.54,-51.85 173.02,-51.95 173.51,-51.90 173.99,-51.85 174.44,-51.64 174.89,-51.43 175.24,-51.09 175.60,-50.76 175.83,-50.32 176.06,-49.89 176.14,-49.40 176.22,-48.92 176.22,-48.92 176.22,-48.92 176.20,-47.05 176.18,-45.19 176.12,-44.04 176.07,-42.89 175.98,-41.19 175.89,-39.48 175.88,-38.23 175.86,-36.98 176.19,-34.80 176.51,-32.62 176.59,-31.44 176.66,-30.26 177.01,-28.48 177.36,-26.70 177.53,-24.92 177.70,-23.14 178.08,-21.20 178.46,-19.27 178.70,-17.10 178.94,-14.94 179.29,-12.66 179.64,-10.37 179.24,-8.41 178.84,-6.44 177.69,-5.54 176.54,-4.63 174.89,-4.50 173.23,-4.37 171.15,-5.07 169.07,-5.76 167.81,-6.13 166.55,-6.51 164.77,-7.00 162.99,-7.50 161.26,-7.61 159.53,-7.72 157.82,-7.73 156.11,-7.73 154.69,-7.45 153.27,-7.17 151.01,-6.96 148.74,-6.75 145.30,-6.25 141.86,-5.75 137.76,-5.24 133.65,-4.72 128.05,-4.19 122.44,-3.66 118.42,-3.06 114.40,-2.46 108.88,-1.72 103.37,-0.98 97.09,-0.59 90.82,-0.19 79.45,0.06 68.08,0.31 55.82,0.90 43.55,1.49 30.66,1.52 17.76,1.56 12.57,1.60 7.38,1.65 5.09,1.72 2.81,1.78 1.40,1.69 0,1.61 -0.19,1.58 -0.38,1.56 -0.56,1.49 -0.74,1.42 -0.90,1.31 -1.06,1.20 -1.19,1.06 -1.32,0.91 -1.41,0.74 -1.50,0.57 -1.55,0.38 -1.59,0.19 -1.59,-0.00 -1.59,-0.19 -1.55,-0.38 -1.50,-0.57 -1.41,-0.74 -1.32,-0.91 -1.19,-1.06 -1.06,-1.20 -0.90,-1.31 -0.74,-1.42 -0.56,-1.49 -0.38,-1.56 -0.19,-1.58 0.00,-1.61 0.00,-1.61 L 0,-1.61 Z"></path></g><g transform="translate(1995.944283055338 1506.7974635476319) rotate(0 12.719811597130047 -8.80601709689131)" stroke="none"><path fill="#000000" d="M -1.15,-1.93 Q -1.15,-1.93 0.25,-2.76 1.66,-3.59 3.00,-4.65 4.34,-5.71 5.79,-6.98 7.25,-8.24 8.36,-9.74 9.47,-11.24 10.17,-12.70 10.87,-14.16 11.19,-15.73 11.50,-17.30 12.67,-18.21 13.85,-19.13 15.65,-18.64 17.45,-18.16 18.34,-17.39 19.22,-16.62 20.44,-15.01 21.66,-13.41 22.71,-11.87 23.76,-10.34 24.56,-9.10 25.36,-7.86 26.52,-5.86 27.69,-3.85 27.78,-3.47 27.86,-3.09 27.83,-2.69 27.79,-2.30 27.63,-1.94 27.46,-1.58 27.20,-1.30 26.93,-1.01 26.58,-0.82 26.23,-0.63 25.85,-0.56 25.46,-0.50 25.07,-0.56 24.68,-0.62 24.33,-0.80 23.98,-0.98 23.71,-1.26 23.43,-1.54 23.26,-1.90 23.10,-2.26 23.05,-2.65 23.00,-3.04 23.08,-3.42 23.16,-3.81 23.36,-4.15 23.56,-4.49 23.86,-4.75 24.16,-5.00 24.52,-5.15 24.89,-5.30 25.28,-5.33 25.67,-5.35 26.05,-5.25 26.44,-5.15 26.76,-4.93 27.09,-4.71 27.33,-4.40 27.57,-4.09 27.70,-3.72 27.83,-3.35 27.84,-2.95 27.84,-2.56 27.72,-2.19 27.60,-1.81 27.36,-1.49 27.13,-1.18 26.80,-0.95 26.48,-0.73 26.10,-0.62 25.72,-0.51 25.33,-0.53 24.93,-0.55 24.57,-0.69 24.20,-0.83 23.90,-1.08 23.59,-1.34 23.39,-1.67 23.18,-2.01 23.18,-2.01 23.18,-2.01 22.29,-3.70 21.39,-5.40 20.73,-6.52 20.07,-7.64 19.00,-9.01 17.94,-10.37 16.53,-12.46 15.12,-14.56 14.66,-13.53 14.20,-12.50 13.33,-10.83 12.47,-9.16 11.21,-7.26 9.96,-5.36 8.50,-3.91 7.05,-2.46 5.50,-1.12 3.96,0.22 2.56,1.07 1.15,1.93 0.91,2.04 0.66,2.15 0.39,2.20 0.12,2.25 -0.14,2.23 -0.41,2.21 -0.67,2.13 -0.93,2.05 -1.16,1.91 -1.39,1.76 -1.58,1.57 -1.77,1.38 -1.91,1.15 -2.05,0.91 -2.13,0.65 -2.21,0.39 -2.23,0.12 -2.24,-0.14 -2.19,-0.41 -2.14,-0.67 -2.03,-0.92 -1.92,-1.17 -1.75,-1.38 -1.58,-1.59 -1.37,-1.76 -1.15,-1.93 -1.15,-1.93 L -1.15,-1.93 Z"></path></g><g transform="translate(1910.8193142610853 1569.7241105337582) rotate(0 32.5 12.5)"><text x="0" y="17" font-family="Virgil, Segoe UI Emoji" font-size="20px" fill="#000000" text-anchor="start" style="white-space: pre;" direction="ltr">jump 4</text></g><g stroke-linecap="round"><g transform="translate(2101.8400362259836 1670.804162489754) rotate(0 -34.543196394776714 -57.5131635052536)"><path d="M-0.67 -0.16 C-15.17 -23.69, -29.36 -49.78, -69.57 -115.53 M0.8 0.51 C-18.31 -29.49, -35.99 -58.76, -69.88 -115.21" stroke="#000000" stroke-width="1" fill="none"></path></g><g transform="translate(2101.8400362259836 1670.804162489754) rotate(0 -34.543196394776714 -57.5131635052536)"><path d="M-47.23 -96.5 C-52.06 -98.82, -55.8 -103.24, -69.76 -115.66 M-45.76 -95.84 C-52.25 -101.14, -57.91 -105.45, -70.08 -115.34" stroke="#000000" stroke-width="1" fill="none"></path></g><g transform="translate(2101.8400362259836 1670.804162489754) rotate(0 -34.543196394776714 -57.5131635052536)"><path d="M-64.82 -85.92 C-65.6 -90.8, -65.38 -97.6, -69.76 -115.66 M-63.35 -85.26 C-65.34 -93.41, -66.43 -100.46, -70.08 -115.34" stroke="#000000" stroke-width="1" fill="none"></path></g></g><mask></mask><g transform="translate(2117.271731910653 1673.439558041124) rotate(0 282.5 24.5)"><text x="0" y="17.5" font-family="Virgil, Segoe UI Emoji" font-size="20px" fill="#000000" text-anchor="start" style="white-space: pre;" direction="ltr">Add item to stack corresponding to the amount of jumps</text><text x="0" y="42" font-family="Virgil, Segoe UI Emoji" font-size="20px" fill="#000000" text-anchor="start" style="white-space: pre;" direction="ltr">1 jump = second stack (stack[1])</text></g><g transform="translate(1699.4746411690312 1637.2370779800617) rotate(0 93 24.5)"><text x="0" y="17.5" font-family="Virgil, Segoe UI Emoji" font-size="20px" fill="#000000" text-anchor="start" style="white-space: pre;" direction="ltr">Ignore this item</text><text x="0" y="42" font-family="Virgil, Segoe UI Emoji" font-size="20px" fill="#000000" text-anchor="start" style="white-space: pre;" direction="ltr">because it's empty</text></g></svg>